<svg xmlns="http://www.w3.org/2000/svg" width="157" height="110.904" viewBox="0 0 157 110.904">
  <g id="Path_2659" data-name="Path 2659" fill="#080925">
    <path d="M 138 110.404167175293 L 19 110.404167175293 C 16.5101203918457 110.404167175293 14.09430027008057 109.8538665771484 11.81966018676758 108.7685241699219 C 9.617899894714355 107.7179641723633 7.639420032501221 106.2127456665039 5.939139842987061 104.2946701049805 C 4.235000133514404 102.3722457885742 2.896660089492798 100.1325454711914 1.961279988288879 97.63780975341797 C 0.9916399717330933 95.05166625976562 0.5 92.30372619628906 0.5 89.47032928466797 L 0.5 44.34640884399414 C 0.5 41.51300811767578 0.9916399717330933 38.76506805419922 1.961279988288879 36.17892837524414 C 2.896660089492798 33.68418884277344 4.235000133514404 31.44448661804199 5.939139842987061 29.52206802368164 C 7.639420032501221 27.6039867401123 9.617899894714355 26.09876823425293 11.81966018676758 25.04820823669434 C 14.09430027008057 23.96286773681641 16.5101203918457 23.41256713867188 19 23.41256713867188 L 19.5 23.41256713867188 L 19.5 22.91256713867188 L 19.5 1.314160823822021 L 39.01266098022461 23.24492645263672 L 39.16180038452148 23.41256713867188 L 39.38619995117188 23.41256713867188 L 138 23.41256713867188 C 140.4898834228516 23.41256713867188 142.9057006835938 23.96286773681641 145.1803436279297 25.04820823669434 C 147.3820953369141 26.09876823425293 149.360595703125 27.6039867401123 151.0608825683594 29.52206802368164 C 152.7649993896484 31.44448661804199 154.1033325195312 33.68418884277344 155.0387268066406 36.17892837524414 C 156.0083618164062 38.76506805419922 156.5 41.51300811767578 156.5 44.34640884399414 L 156.5 89.47032928466797 C 156.5 92.30372619628906 156.0083618164062 95.05166625976562 155.0387268066406 97.63780975341797 C 154.1033325195312 100.1325454711914 152.7649993896484 102.3722457885742 151.0608825683594 104.2946701049805 C 149.360595703125 106.2127456665039 147.3820953369141 107.7179641723633 145.1803436279297 108.7685241699219 C 142.9057006835938 109.8538665771484 140.4898834228516 110.404167175293 138 110.404167175293 Z" stroke="none"/>
    <path d="M 138 109.904167175293 C 142.7849731445312 109.904167175293 147.2905426025391 107.7942276000977 150.6867218017578 103.9629898071289 C 152.3500671386719 102.0865859985352 153.6567535400391 99.89942932128906 154.5705413818359 97.46226501464844 C 155.5190582275391 94.93244934082031 156 92.24356842041016 156 89.47032928466797 L 156 44.34640884399414 C 156 41.57316589355469 155.5190582275391 38.8842887878418 154.5705413818359 36.35446929931641 C 153.6567535400391 33.91730880737305 152.3500671386719 31.73014831542969 150.6867218017578 29.8537483215332 C 147.2905426025391 26.02250671386719 142.7849731445312 23.91256713867188 138 23.91256713867188 L 39.38619995117188 23.91256713867188 L 38.93741989135742 23.91256713867188 L 38.63909912109375 23.5772876739502 L 20 2.628336668014526 L 20 22.91256713867188 L 20 23.91256713867188 L 19 23.91256713867188 C 14.21504020690918 23.91256713867188 9.709480285644531 26.02250671386719 6.313300132751465 29.8537483215332 C 4.649960041046143 31.73014831542969 3.343240022659302 33.91730880737305 2.429460048675537 36.35446929931641 C 1.480939984321594 38.8842887878418 1 41.57316589355469 1 44.34640884399414 L 1 89.47032928466797 C 1 92.24356842041016 1.480939984321594 94.93244934082031 2.429460048675537 97.46226501464844 C 3.343240022659302 99.89942932128906 4.649960041046143 102.0865859985352 6.313300132751465 103.9629898071289 C 9.709480285644531 107.7942276000977 14.21504020690918 109.904167175293 19 109.904167175293 L 138 109.904167175293 M 138 110.904167175293 L 19 110.904167175293 C 8.506600379943848 110.904167175293 0 101.3079071044922 0 89.47032928466797 L 0 44.34640884399414 C 0 32.50882720947266 8.506600379943848 22.91256713867188 19 22.91256713867188 L 19 7.402343726425897e-06 L 39.38619995117188 22.91256713867188 L 138 22.91256713867188 C 148.4934234619141 22.91256713867188 157 32.50882720947266 157 44.34640884399414 L 157 89.47032928466797 C 157 101.3079071044922 148.4934234619141 110.904167175293 138 110.904167175293 Z" stroke="none" fill="#9a4d9f"/>
  </g>
</svg>
