<svg xmlns="http://www.w3.org/2000/svg" width="60.146" height="64.772" viewBox="0 0 60.146 64.772">
  <path id="Path_2657" data-name="Path 2657" d="M68.627,60.146h10.41V49.736H68.627Zm12.723,0H92.916V49.736H81.35ZM68.627,47.423h10.41V35.856H68.627Zm12.723,0H92.916V35.856H81.35ZM68.627,33.543h10.41V23.133H68.627Zm26.6,26.6H106.8V49.736H95.229Zm-13.88-26.6H92.916V23.133H81.35Zm27.76,26.6h10.41V49.736h-10.41ZM95.229,47.423H106.8V35.856H95.229ZM82.506,16.193V5.783A1.173,1.173,0,0,0,81.35,4.627H79.036A1.173,1.173,0,0,0,77.88,5.783v10.41a1.173,1.173,0,0,0,1.157,1.157H81.35a1.173,1.173,0,0,0,1.157-1.157Zm26.6,31.229h10.41V35.856h-10.41Zm-13.88-13.88H106.8V23.133H95.229Zm13.88,0h10.41V23.133h-10.41Zm1.157-17.35V5.783a1.173,1.173,0,0,0-1.157-1.157H106.8a1.173,1.173,0,0,0-1.157,1.157v10.41A1.173,1.173,0,0,0,106.8,17.35h2.313a1.173,1.173,0,0,0,1.157-1.157Zm13.88-2.313V60.146a4.691,4.691,0,0,1-4.627,4.627H68.627A4.691,4.691,0,0,1,64,60.146V13.88a4.446,4.446,0,0,1,1.374-3.253,4.446,4.446,0,0,1,3.253-1.374h4.627V5.783a5.569,5.569,0,0,1,1.7-4.084A5.569,5.569,0,0,1,79.036,0H81.35a5.569,5.569,0,0,1,4.084,1.7,5.569,5.569,0,0,1,1.7,4.084v3.47h13.88V5.783a5.569,5.569,0,0,1,1.7-4.084A5.569,5.569,0,0,1,106.8,0h2.313a5.569,5.569,0,0,1,4.084,1.7,5.569,5.569,0,0,1,1.7,4.084v3.47h4.627a4.446,4.446,0,0,1,3.253,1.374A4.446,4.446,0,0,1,124.146,13.88Z" transform="translate(-64)"/>
</svg>
