<svg id="XMLID_1_" xmlns="http://www.w3.org/2000/svg" width="35" height="35" viewBox="0 0 35 35">
  <path id="Path_2650" data-name="Path 2650" d="M66.9,45.485,61.06,51.329,45.484,66.9a.941.941,0,0,1-1.33,0l-2.226-2.227a5.125,5.125,0,0,0,0-7.247q-.134-.134-.278-.257a5.125,5.125,0,0,0-6.97.257L32.454,55.2a.941.941,0,0,1,0-1.33L38.3,48.03,53.874,32.454a.941.941,0,0,1,1.33,0l2.226,2.227a5.125,5.125,0,0,0,7.247,7.247L66.9,44.154A.942.942,0,0,1,66.9,45.485Z" transform="translate(-32.179 -32.179)" fill="#9a4d9f"/>
  <path id="Path_2651" data-name="Path 2651" d="M38.3,48.03,53.874,32.454a.941.941,0,0,1,1.33,0l2.226,2.227a5.125,5.125,0,0,0,7.247,7.247L66.9,44.154a.942.942,0,0,1,0,1.331L61.06,51.329,45.484,66.9a.941.941,0,0,1-1.33,0l-2.226-2.227a5.125,5.125,0,0,0-7.247-7.247L32.454,55.2a.941.941,0,0,1,0-1.33Z" transform="translate(-32.179 -32.179)" fill="none"/>
  <path id="Path_2652" data-name="Path 2652" d="M117.669,242.437a.312.312,0,0,1-.221-.092l-10.909-10.909a.313.313,0,1,1,.442-.443l10.91,10.91a.313.313,0,0,1-.221.534Z" transform="translate(-100.64 -215.364)" fill="#c98b0e"/>
  <path id="Path_2653" data-name="Path 2653" d="M269.243,145.1a.312.312,0,0,1-.221-.092l-10.91-10.91a.313.313,0,1,1,.442-.442l10.91,10.91a.313.313,0,0,1-.221.534Z" transform="translate(-240.362 -125.634)" fill="#c98b0e"/>
</svg>
